<?xml version="1.0" encoding="utf-8"?>
<!-- Generator: Adobe Illustrator 25.1.0, SVG Export Plug-In . SVG Version: 6.00 Build 0)  -->
<svg version="1.1" id="Layer_1" xmlns="http://www.w3.org/2000/svg" xmlns:xlink="http://www.w3.org/1999/xlink" x="0px" y="0px"
	 viewBox="0 0 1231.2 665.6" style="enable-background:new 0 0 1231.2 665.6;" xml:space="preserve">
<style type="text/css">
	.st0{fill:none;stroke:#000000;stroke-width:0.9998;stroke-miterlimit:3.9992;}
	.st1{font-family:'TimesNewRomanPSMT';}
	.st2{font-size:13.9974px;}
</style>
<g id="node1">
	<polygon class="st0" points="4,324.7 4,216.7 269.5,216.7 269.5,324.7 	"/>
	<text transform="matrix(1 0 0 1 114.9629 233.3105)" class="st1 st2">Camera</text>
	<line class="st0" x1="4" y1="241.5" x2="269.5" y2="241.5"/>
	<text transform="matrix(1 0 0 1 11.9976 258.106)" class="st1 st2">camera_parameters : dict</text>
	<text transform="matrix(1 0 0 1 11.9976 274.9028)" class="st1 st2">projection_matrix</text>
	<line class="st0" x1="4" y1="283.1" x2="269.5" y2="283.1"/>
	<text transform="matrix(1 0 0 1 11.9976 299.6982)" class="st1 st2">get_image()</text>
	<text transform="matrix(1 0 0 1 11.9976 316.4951)" class="st1 st2">set_camera_parameters(camera_parameters)</text>
</g>
<g id="node2">
	<polygon class="st0" points="119.3,179.7 119.3,4.6 412.1,4.6 412.1,179.7 	"/>
	<text transform="matrix(1 0 0 1 220.0688 21.1504)" class="st1 st2">EndeffectorTool</text>
	<line class="st0" x1="119.3" y1="29.3" x2="412.1" y2="29.3"/>
	<text transform="matrix(1 0 0 1 127.3154 45.9463)" class="st1 st2">urdf</text>
	<line class="st0" x1="119.3" y1="54.1" x2="412.1" y2="54.1"/>
	<text transform="matrix(1 0 0 1 127.3154 70.7412)" class="st1 st2">apply_tcp_force(force, world_coordinates)</text>
	<text transform="matrix(1 0 0 1 127.3154 87.5381)" class="st1 st2">apply_tcp_torque(torque)</text>
	<text transform="matrix(1 0 0 1 127.3154 104.335)" class="st1 st2">couple(robot, endeffector_name)</text>
	<text transform="matrix(1 0 0 1 127.3154 121.1318)" class="st1 st2">decouple()</text>
	<text transform="matrix(1 0 0 1 127.3154 137.9287)" class="st1 st2">get_tool_pose(tcp_frame)</text>
	<text transform="matrix(1 0 0 1 127.3154 154.7256)" class="st1 st2">is_coupled()</text>
	<text transform="matrix(1 0 0 1 127.3154 171.5225)" class="st1 st2">set_tool_pose(target_position, target_orientation)</text>
</g>
<g id="edge1">
	<path class="st0" d="M175.8,216.6c6.5-9.1,13.5-18.7,20.5-28.4"/>
	<polygon class="st0" points="193.6,186 202.2,180 199.2,190.1 	"/>
</g>
<g id="node3">
	<polygon class="st0" points="261.7,502.9 261.7,429.3 385.7,429.3 385.7,502.9 	"/>
	<text transform="matrix(1 0 0 1 299.2041 445.8706)" class="st1 st2">Extruder</text>
	<line class="st0" x1="261.7" y1="454.1" x2="385.7" y2="454.1"/>
	<line class="st0" x1="261.7" y1="478.1" x2="385.7" y2="478.1"/>
	<text transform="matrix(1 0 0 1 269.6758 494.6611)" class="st1 st2">extrude(tcp_frame)</text>
</g>
<g id="node8">
	<polygon class="st0" points="287.6,316.3 287.6,225.1 501.8,225.1 501.8,316.3 	"/>
	<text transform="matrix(1 0 0 1 365.5225 241.709)" class="st1 st2">RayCaster</text>
	<line class="st0" x1="287.6" y1="249.9" x2="501.8" y2="249.9"/>
	<text transform="matrix(1 0 0 1 295.5752 266.5044)" class="st1 st2">properties : dict</text>
	<line class="st0" x1="287.6" y1="274.7" x2="501.8" y2="274.7"/>
	<text transform="matrix(1 0 0 1 295.5752 291.2998)" class="st1 st2">cast_rays(position, orientation)</text>
	<text transform="matrix(1 0 0 1 295.5752 308.0967)" class="st1 st2">change_properties(new_properties)</text>
</g>
<g id="edge2">
	<path class="st0" d="M337.2,428.9c10.6-29.1,25.5-70.1,37.4-103"/>
	<polygon class="st0" points="371.4,324.6 378.1,316.4 378,327 	"/>
</g>
<g id="node4">
	<polygon class="st0" points="634.3,572.3 634.3,464.4 738.2,464.4 738.2,572.3 	"/>
	<text transform="matrix(1 0 0 1 653.7247 480.965)" class="st1 st2">MetalVoxel</text>
	<line class="st0" x1="634.3" y1="489.2" x2="738.2" y2="489.2"/>
	<text transform="matrix(1 0 0 1 642.3278 505.7604)" class="st1 st2">particle_id</text>
	<text transform="matrix(1 0 0 1 642.3278 522.5568)" class="st1 st2">properties : dict</text>
	<line class="st0" x1="634.3" y1="530.8" x2="738.2" y2="530.8"/>
	<text transform="matrix(1 0 0 1 642.3278 547.3522)" class="st1 st2">get_position()</text>
	<text transform="matrix(1 0 0 1 642.3278 564.149)" class="st1 st2">remove()</text>
</g>
<g id="node6">
	<polygon class="st0" points="759.7,377 759.7,269 1002.7,269 1002.7,377 	"/>
	<text transform="matrix(1 0 0 1 859.839 285.6017)" class="st1 st2">Particle</text>
	<line class="st0" x1="759.7" y1="293.8" x2="1002.7" y2="293.8"/>
	<text transform="matrix(1 0 0 1 767.7296 310.3971)" class="st1 st2">properties : dict</text>
	<line class="st0" x1="759.7" y1="318.6" x2="1002.7" y2="318.6"/>
	<text transform="matrix(1 0 0 1 767.7296 335.1925)" class="st1 st2">get_position()</text>
	<text transform="matrix(1 0 0 1 767.7296 351.9894)" class="st1 st2">remove()</text>
	<text transform="matrix(1 0 0 1 767.7296 368.7863)" class="st1 st2">set_material_properties(new_properties)</text>
</g>
<g id="edge3">
	<path class="st0" d="M711.6,464.2c9.7-17.4,21.7-35.9,35.6-50.8c10-10.7,21.4-20.7,33.3-30"/>
	<polygon class="st0" points="778.8,380.4 788.9,377.2 783,386 	"/>
</g>
<g id="node5">
	<polygon class="st0" points="756.6,622.7 756.6,414 1005.8,414 1005.8,622.7 	"/>
	<text transform="matrix(1 0 0 1 866.8273 430.5743)" class="st1 st2">Paint</text>
	<line class="st0" x1="756.6" y1="438.8" x2="1005.8" y2="438.8"/>
	<text transform="matrix(1 0 0 1 764.6056 455.3698)" class="st1 st2">adj_target_position</text>
	<text transform="matrix(1 0 0 1 764.6056 472.1666)" class="st1 st2">hit_position</text>
	<text transform="matrix(1 0 0 1 764.6056 488.9635)" class="st1 st2">initial_target_position : ndarray</text>
	<text transform="matrix(1 0 0 1 764.6056 505.7604)" class="st1 st2">particle_ids : list</text>
	<text transform="matrix(1 0 0 1 764.6056 522.5568)" class="st1 st2">properties : dict</text>
	<text transform="matrix(1 0 0 1 764.6056 539.3536)" class="st1 st2">target_id</text>
	<text transform="matrix(1 0 0 1 764.6056 556.1505)" class="st1 st2">target_link_id</text>
	<line class="st0" x1="756.6" y1="564.3" x2="1005.8" y2="564.3"/>
	<text transform="matrix(1 0 0 1 764.6056 580.9459)" class="st1 st2">get_position()</text>
	<text transform="matrix(1 0 0 1 764.6056 597.7423)" class="st1 st2">get_target_pose(target_id, target_link_id)</text>
	<text transform="matrix(1 0 0 1 764.6056 614.5392)" class="st1 st2">remove()</text>
</g>
<g id="edge4">
	<path class="st0" d="M881.2,413.8c0-9,0-18,0-26.5"/>
	<polygon class="st0" points="877.7,387 881.2,377 884.7,387 	"/>
</g>
<g id="node7">
	<polygon class="st0" points="1024.3,572.3 1024.3,464.4 1128.1,464.4 1128.1,572.3 	"/>
	<text transform="matrix(1 0 0 1 1057.5157 480.965)" class="st1 st2">Plastic</text>
	<line class="st0" x1="1024.3" y1="489.2" x2="1128.1" y2="489.2"/>
	<text transform="matrix(1 0 0 1 1032.254 505.7604)" class="st1 st2">particle_id</text>
	<text transform="matrix(1 0 0 1 1032.254 522.5568)" class="st1 st2">properties : dict</text>
	<line class="st0" x1="1024.3" y1="530.8" x2="1128.1" y2="530.8"/>
	<text transform="matrix(1 0 0 1 1032.254 547.3522)" class="st1 st2">get_position()</text>
	<text transform="matrix(1 0 0 1 1032.254 564.149)" class="st1 st2">remove()</text>
</g>
<g id="edge5">
	<path class="st0" d="M1050.8,464.2c-9.7-17.4-21.7-35.9-35.6-50.8c-10-10.7-21.4-20.7-33.3-30"/>
	<polygon class="st0" points="979.4,386 973.6,377.2 983.6,380.4 	"/>
</g>
<g id="edge6">
	<path class="st0" d="M361.5,224.7c-8.1-11.3-17.2-23.8-26.3-36.4"/>
	<polygon class="st0" points="332.1,190.1 329.1,179.9 337.8,186 	"/>
</g>
<g id="node9">
	<polygon class="st0" points="403.7,502.9 403.7,429.3 527.7,429.3 527.7,502.9 	"/>
	<text transform="matrix(1 0 0 1 440.0088 445.8706)" class="st1 st2">Remover</text>
	<line class="st0" x1="403.7" y1="454.1" x2="527.7" y2="454.1"/>
	<line class="st0" x1="403.7" y1="478.1" x2="527.7" y2="478.1"/>
	<text transform="matrix(1 0 0 1 411.6489 494.6611)" class="st1 st2">remove(tcp_frame)</text>
</g>
<g id="edge7">
	<path class="st0" d="M452.1,428.9c-10.6-29.1-25.5-70.1-37.4-103"/>
	<polygon class="st0" points="411.4,327 411.3,316.4 418,324.6 	"/>
</g>
<g id="node10">
	<polygon class="st0" points="459.4,213.3 459.4,4.6 902.1,4.6 902.1,213.3 	"/>
	<text transform="matrix(1 0 0 1 650.0618 21.1507)" class="st1 st2">RobotBase</text>
	<line class="st0" x1="459.4" y1="29.3" x2="902.1" y2="29.3"/>
	<text transform="matrix(1 0 0 1 467.4055 45.9461)" class="st1 st2">max_joint_force</text>
	<text transform="matrix(1 0 0 1 467.4055 62.7429)" class="st1 st2">number_of_joints</text>
	<text transform="matrix(1 0 0 1 467.4055 79.5398)" class="st1 st2">urdf</text>
	<line class="st0" x1="459.4" y1="87.7" x2="902.1" y2="87.7"/>
	<text transform="matrix(1 0 0 1 467.4055 104.3352)" class="st1 st2">get_endeffector_pose(endeffector_name)</text>
	<text transform="matrix(1 0 0 1 467.4055 121.1321)" class="st1 st2">get_joint_state()</text>
	<text transform="matrix(1 0 0 1 467.4055 137.9285)" class="st1 st2">get_world_state()</text>
	<text transform="matrix(1 0 0 1 467.4055 154.7254)" class="st1 st2">reset_robot(start_position, start_orientation, joint_values)</text>
	<text transform="matrix(1 0 0 1 467.4055 171.5222)" class="st1 st2">set_endeffector_pose(target_position, target_orientation, endeffector_name)</text>
	<text transform="matrix(1 0 0 1 467.4055 188.3186)" class="st1 st2">set_joint_position(target, ignore_limits)</text>
	<text transform="matrix(1 0 0 1 467.4055 205.1155)" class="st1 st2">set_world_state(start_position, start_orientation)</text>
</g>
<g id="node11">
	<polygon class="st0" points="983.3,213.3 983.3,4.6 1208.4,4.6 1208.4,213.3 	"/>
	<text transform="matrix(1 0 0 1 1070.6814 21.1507)" class="st1 st2">ToolPath</text>
	<line class="st0" x1="983.3" y1="29.3" x2="1208.4" y2="29.3"/>
	<text transform="matrix(1 0 0 1 991.2927 45.9461)" class="st1 st2">current_index : int</text>
	<text transform="matrix(1 0 0 1 991.2927 62.7429)" class="st1 st2">orientations : ndarray, NoneType</text>
	<text transform="matrix(1 0 0 1 991.2927 79.5398)" class="st1 st2">positions : ndarray</text>
	<text transform="matrix(1 0 0 1 991.2927 96.3367)" class="st1 st2">tool_activations : NoneType, ndarray</text>
	<line class="st0" x1="983.3" y1="104.5" x2="1208.4" y2="104.5"/>
	<text transform="matrix(1 0 0 1 991.2927 121.1321)" class="st1 st2">append(tool_path)</text>
	<text transform="matrix(1 0 0 1 991.2927 137.9285)" class="st1 st2">draw(pose, color)</text>
	<text transform="matrix(1 0 0 1 991.2927 154.7254)" class="st1 st2">get_start_pose()</text>
	<text transform="matrix(1 0 0 1 991.2927 171.5222)" class="st1 st2">prepend(tool_path)</text>
	<text transform="matrix(1 0 0 1 991.2927 188.3186)" class="st1 st2">rotate(quaternion)</text>
	<text transform="matrix(1 0 0 1 991.2927 205.1155)" class="st1 st2">translate(vector)</text>
</g>
</svg>
